<svg xmlns="http://www.w3.org/2000/svg" xml:space="preserve" id="Capa_1" x="0" y="0" style="enable-background:new 0 0 220 77" viewBox="0 0 220 77"><style>.st0{fill:gold}</style><linearGradient id="SVGID_1_" x1="0" x2=".707" y1="-490" y2="-489.293" gradientUnits="userSpaceOnUse"><stop offset="0" style="stop-color:#e6e6eb"/><stop offset=".175" style="stop-color:#e2e2e7"/><stop offset=".355" style="stop-color:#d6d6db"/><stop offset=".537" style="stop-color:#c2c3c6"/><stop offset=".72" style="stop-color:#a5a7a9"/><stop offset=".903" style="stop-color:#818485"/><stop offset="1" style="stop-color:#6b6e6e"/></linearGradient><path d="M89.2 28.5c-.6-.7-1.4-1.1-2.3-1.1-.4 0-.8.1-1.1.2-.3.1-.6.3-.9.6-.2.2-.4.5-.6.9-.1.3-.2.7-.2 1.1 0 .4.1.8.2 1.1.1.3.3.6.6.9.2.3.5.5.9.6.3.1.7.2 1.1.2.8 0 1.6-.4 2.3-1.1V35l-.3.1c-.4.1-.8.2-1.1.3-.4.1-.7.1-1 .1-.7 0-1.4-.1-2-.4-.6-.3-1.2-.6-1.7-1.1-.5-.5-.9-1.1-1.2-1.7-.3-.7-.4-1.4-.4-2.2s.1-1.5.4-2.2c.3-.7.7-1.2 1.2-1.7s1.1-.8 1.7-1.1c.6-.3 1.3-.4 2-.4.4 0 .8 0 1.2.1.4.1.8.2 1.2.4v3.3zM90.4 30.2c0-.8.1-1.5.4-2.1.3-.7.7-1.2 1.2-1.7s1.1-.9 1.8-1.1c.7-.3 1.4-.4 2.3-.4.8 0 1.6.1 2.3.4.7.3 1.3.7 1.8 1.1.5.5.9 1.1 1.2 1.7.3.7.4 1.4.4 2.1 0 .8-.1 1.5-.4 2.1-.3.7-.7 1.2-1.2 1.7s-1.1.9-1.8 1.1c-.7.3-1.5.4-2.3.4-.8 0-1.6-.1-2.3-.4-.7-.3-1.3-.7-1.8-1.1-.5-.5-.9-1.1-1.2-1.7-.2-.7-.4-1.4-.4-2.1zm2.8 0c0 .4.1.8.2 1.1l.6.9c.3.3.6.4.9.6.3.1.7.2 1.1.2.4 0 .8-.1 1.1-.2.3-.1.7-.3.9-.6.3-.3.5-.5.6-.9.2-.3.2-.7.2-1.1 0-.4-.1-.8-.2-1.1l-.6-.9c-.3-.3-.6-.4-.9-.6-.3-.1-.7-.2-1.1-.2-.4 0-.8.1-1.1.2-.3.1-.7.3-.9.6-.3.3-.5.5-.6.9-.1.3-.2.7-.2 1.1zM106.1 25.1V33h3.2v2.2h-5.8V25.1h2.6zM116.5 27.3h-3.1V29h3v2.2h-3V33h3.1v2.2h-5.8V25.1h5.8v2.2zM123.4 29.6h5.3c0 .5 0 1-.1 1.5 0 .4-.1.9-.3 1.2-.2.5-.4 1-.8 1.4-.3.4-.7.8-1.1 1-.4.3-.9.5-1.4.6-.5.1-1.1.2-1.6.2-.8 0-1.5-.1-2.2-.4-.7-.3-1.2-.6-1.7-1.1-.5-.5-.8-1-1.1-1.7-.3-.7-.4-1.4-.4-2.2 0-.8.1-1.5.4-2.2.3-.7.6-1.2 1.1-1.7.5-.5 1-.8 1.7-1.1.7-.3 1.4-.4 2.2-.4 1.1 0 2 .2 2.8.7.8.5 1.4 1.2 1.9 2.1l-2.5 1c-.2-.6-.5-1-.9-1.2-.4-.2-.8-.4-1.3-.4-.4 0-.8.1-1.1.2-.3.1-.6.4-.8.6-.2.3-.4.6-.5 1-.1.4-.2.8-.2 1.3 0 .4.1.8.2 1.2.1.4.3.7.5 1 .2.3.5.5.8.6.3.1.7.2 1.2.2.3 0 .5 0 .8-.1.2-.1.5-.2.7-.3.2-.1.4-.3.5-.5.1-.2.2-.5.3-.8h-2.2v-1.7zM133.1 25.1v10.2h-2.6V25.1h2.6zM134.9 30.2c0-.8.1-1.5.4-2.1.3-.7.7-1.2 1.2-1.7s1.1-.9 1.8-1.1c.7-.3 1.4-.4 2.3-.4.8 0 1.6.1 2.3.4.7.3 1.3.7 1.8 1.1s.9 1.1 1.2 1.7c.3.7.4 1.4.4 2.1 0 .8-.1 1.5-.4 2.1-.3.7-.7 1.2-1.2 1.7s-1.1.9-1.8 1.1c-.7.3-1.5.4-2.3.4-.8 0-1.6-.1-2.3-.4-.7-.3-1.3-.7-1.8-1.1-.5-.5-.9-1.1-1.2-1.7-.2-.7-.4-1.4-.4-2.1zm2.8 0c0 .4.1.8.2 1.1l.6.9c.3.3.6.4.9.6.3.1.7.2 1.1.2.4 0 .8-.1 1.1-.2.3-.1.7-.3.9-.6.3-.3.5-.5.6-.9.2-.3.2-.7.2-1.1 0-.4-.1-.8-.2-1.1l-.6-.9c-.3-.3-.6-.4-.9-.6-.3-.1-.7-.2-1.1-.2-.4 0-.8.1-1.1.2-.3.1-.7.3-.9.6-.3.3-.5.5-.6.9-.1.3-.2.7-.2 1.1zM159 33.5h-3.8l-.6 1.8h-2.8l3.9-10.2h2.9l3.9 10.2h-2.8l-.7-1.8zm-.7-2-1.2-3.4-1.2 3.4h2.4zM163.7 35.3V25.1h2.6l4.9 6.2v-6.2h2.6v10.2h-2.6l-4.9-6.2v6.2h-2.6zM176.1 25.1h3.9c.7 0 1.3.1 2 .4.6.3 1.1.7 1.6 1.1.5.5.8 1 1.1 1.6.3.6.4 1.3.4 1.9 0 .7-.1 1.3-.4 1.9-.3.6-.6 1.2-1.1 1.6-.5.5-1 .8-1.6 1.1-.6.3-1.3.4-2 .4h-3.9v-10zm2.7 7.9h.6c.5 0 .9-.1 1.2-.2.4-.1.7-.3.9-.6l.6-.9c.1-.3.2-.7.2-1.1 0-.4-.1-.8-.2-1.1-.1-.4-.3-.7-.6-.9-.2-.3-.6-.5-.9-.6-.4-.1-.8-.2-1.2-.2h-.6V33zM189.5 25.1v10.2h-2.6V25.1h2.6zM191.8 35.3V25.1h2.6l4.9 6.2v-6.2h2.6v10.2h-2.6l-4.9-6.2v6.2h-2.6zM203.7 30.2c0-.8.1-1.5.4-2.1.3-.7.7-1.2 1.2-1.7s1.1-.9 1.8-1.1c.7-.3 1.4-.4 2.3-.4.8 0 1.6.1 2.3.4.7.3 1.3.7 1.8 1.1s.9 1.1 1.2 1.7c.3.7.4 1.4.4 2.1 0 .8-.1 1.5-.4 2.1-.3.7-.7 1.2-1.2 1.7s-1.1.9-1.8 1.1c-.7.3-1.5.4-2.3.4-.8 0-1.6-.1-2.3-.4-.7-.3-1.3-.7-1.8-1.1-.5-.5-.9-1.1-1.2-1.7-.2-.7-.4-1.4-.4-2.1zm2.8 0c0 .4.1.8.2 1.1l.6.9c.3.3.6.4.9.6.3.1.7.2 1.1.2.4 0 .8-.1 1.1-.2.3-.1.7-.3.9-.6.3-.3.5-.5.6-.9.2-.3.2-.7.2-1.1 0-.4-.1-.8-.2-1.1l-.6-.9c-.3-.3-.6-.4-.9-.6-.3-.1-.7-.2-1.1-.2-.4 0-.8.1-1.1.2-.3.1-.7.3-.9.6-.3.3-.5.5-.6.9-.1.3-.2.7-.2 1.1zM81.9 40.7h3.9c.7 0 1.3.1 2 .4.6.3 1.1.7 1.6 1.1.5.5.8 1 1.1 1.6.3.6.4 1.3.4 1.9 0 .7-.1 1.3-.4 1.9-.3.6-.6 1.2-1.1 1.6-.5.5-1 .8-1.6 1.1-.6.3-1.3.4-2 .4h-3.9v-10zm2.6 7.9h.6c.5 0 .9-.1 1.2-.2.4-.1.7-.3.9-.6l.6-.9c.1-.3.2-.7.2-1.1 0-.4-.1-.8-.2-1.1-.1-.4-.3-.7-.6-.9-.2-.3-.6-.5-.9-.6-.4-.1-.8-.2-1.2-.2h-.6v5.6zM98.4 42.9h-3.1v1.7h3v2.2h-3v1.8h3.1v2.2h-5.8V40.7h5.8v2.2zM103 40.7v6.4c0 .3.1.6.2.8.1.3.3.5.5.6.2.2.6.2 1 .2s.8-.1 1-.2c.2-.2.4-.4.5-.6.1-.3.2-.5.2-.8v-6.4h2.6v5.9c0 1.6-.4 2.7-1.1 3.5-.7.7-1.8 1.1-3.3 1.1-1.5 0-2.6-.4-3.3-1.1-.7-.7-1.1-1.9-1.1-3.5v-5.9h2.8zM115.3 42.9v7.9h-2.6v-7.9h-2.2v-2.2h7v2.2h-2.2zM124.4 43.3c-.3-.2-.6-.4-.9-.5-.3-.1-.6-.2-.8-.2-.3 0-.6.1-.8.2-.2.2-.3.4-.3.6 0 .2.1.3.2.4.1.1.2.2.4.3.2.1.4.2.6.2.2.1.4.1.7.2.9.3 1.5.7 1.9 1.2.4.5.6 1.1.6 1.9 0 .5-.1 1-.3 1.4-.2.4-.4.8-.8 1.1-.3.3-.8.5-1.2.7-.5.2-1 .2-1.7.2-1.3 0-2.5-.4-3.6-1.1l1.1-2.1c.4.4.8.6 1.2.8.4.2.8.3 1.1.3.4 0 .8-.1 1-.3.2-.2.3-.4.3-.7 0-.2 0-.3-.1-.4-.1-.1-.1-.2-.3-.3-.1-.1-.3-.2-.5-.3-.2-.1-.4-.2-.7-.3-.3-.1-.7-.2-1-.4-.3-.1-.6-.3-.9-.5-.3-.2-.5-.5-.6-.8-.2-.3-.2-.7-.2-1.2s.1-1 .2-1.4c.2-.4.4-.8.7-1.1.3-.3.7-.5 1.1-.7.4-.2.9-.2 1.5-.2.5 0 1 .1 1.6.2.5.1 1.1.3 1.6.6l-1.1 2.2zM134.8 44.1c-.6-.7-1.4-1.1-2.3-1.1-.4 0-.8.1-1.1.2-.3.1-.6.3-.9.6-.2.2-.4.5-.6.9-.1.3-.2.7-.2 1.1 0 .4.1.8.2 1.1.1.3.3.6.6.9.2.3.5.5.9.6.3.1.7.2 1.1.2.8 0 1.6-.4 2.3-1.1v3.1l-.3.1c-.4.1-.8.2-1.1.3-.4.1-.7.1-1 .1-.7 0-1.4-.1-2-.4-.6-.3-1.2-.6-1.7-1.1-.5-.5-.9-1.1-1.2-1.7-.3-.7-.4-1.4-.4-2.2 0-.8.1-1.5.4-2.2.3-.7.7-1.2 1.2-1.7s1.1-.8 1.7-1.1c.6-.3 1.3-.4 2-.4.4 0 .8 0 1.2.1.4.1.8.2 1.2.4v3.3zM139.5 44.6h3.8v-3.9h2.6v10.2h-2.6v-4.2h-3.8v4.2h-2.6V40.7h2.6v3.9zM154 42.9h-3.1v1.7h3v2.2h-3v1.8h3.1v2.2h-5.8V40.7h5.8v2.2zM166.4 43.3c-.3-.2-.6-.4-.9-.5-.3-.1-.6-.2-.8-.2-.3 0-.6.1-.8.2-.2.2-.3.4-.3.6 0 .2.1.3.2.4.1.1.2.2.4.3.2.1.4.2.6.2.2.1.4.1.7.2.9.3 1.5.7 1.9 1.2.4.5.6 1.1.6 1.9 0 .5-.1 1-.3 1.4-.2.4-.4.8-.8 1.1-.3.3-.8.5-1.2.7-.5.2-1 .2-1.7.2-1.3 0-2.5-.4-3.6-1.1l1.1-2.1c.4.4.8.6 1.2.8.4.2.8.3 1.1.3.4 0 .8-.1 1-.3.2-.2.3-.4.3-.7 0-.2 0-.3-.1-.4-.1-.1-.1-.2-.3-.3-.1-.1-.3-.2-.5-.3-.2-.1-.4-.2-.7-.3-.3-.1-.7-.2-1-.4-.3-.1-.6-.3-.9-.5-.3-.2-.5-.5-.6-.8-.2-.3-.2-.7-.2-1.2s.1-1 .2-1.4c.2-.4.4-.8.7-1.1.3-.3.7-.5 1.1-.7.4-.2.9-.2 1.5-.2.5 0 1 .1 1.6.2.5.1 1.1.3 1.6.6l-1.1 2.2zM176.8 44.1c-.6-.7-1.4-1.1-2.3-1.1-.4 0-.8.1-1.1.2-.3.1-.6.3-.9.6-.2.2-.4.5-.6.9-.1.3-.2.7-.2 1.1 0 .4.1.8.2 1.1.1.3.3.6.6.9.2.3.5.5.9.6.3.1.7.2 1.1.2.8 0 1.6-.4 2.3-1.1v3.1l-.3.1c-.4.1-.8.2-1.1.3-.4.1-.7.1-1 .1-.7 0-1.4-.1-2-.4-.6-.3-1.2-.6-1.7-1.1-.5-.5-.9-1.1-1.2-1.7-.3-.7-.4-1.4-.4-2.2 0-.8.1-1.5.4-2.2.3-.7.7-1.2 1.2-1.7s1.1-.8 1.7-1.1c.6-.3 1.3-.4 2-.4.4 0 .8 0 1.2.1.4.1.8.2 1.2.4v3.3zM181.5 44.6h3.8v-3.9h2.6v10.2h-2.6v-4.2h-3.8v4.2h-2.6V40.7h2.6v3.9zM192.9 40.7v6.4c0 .3.1.6.2.8.1.3.3.5.5.6.2.2.6.2 1 .2s.8-.1 1-.2c.2-.2.4-.4.5-.6.1-.3.2-.5.2-.8v-6.4h2.6v5.9c0 1.6-.4 2.7-1.1 3.5-.7.7-1.8 1.1-3.3 1.1-1.5 0-2.6-.4-3.3-1.1-.7-.7-1.1-1.9-1.1-3.5v-5.9h2.8zM204 40.7v7.9h3.2v2.2h-5.8V40.7h2.6zM214.3 42.9h-3.1v1.7h3v2.2h-3v1.8h3.1v2.2h-5.8V40.7h5.8v2.2zM37.3 6.7c18.1 0 31.3 13.2 31.3 31.3S55.4 69.3 37.3 69.3 6 56.1 6 38 19.2 6.7 37.3 6.7m0-2C18.9 4.7 4 17.9 4 38s14.9 33.3 33.3 33.3S70.6 58 70.6 38 55.7 4.7 37.3 4.7z" class="st0"/><path d="M61.4 34.9c-.3-.6-.3-.8-.2-1.6.1-.7 0-1-.4-1.3-.4-.4-.9-.4-1.4-.4-.7 0-1 0-1.3-.3-.4-.3-.6-.8-.9-1-.3-.2-.7-.1-1.1.2-.5.4-.9 1-1.4 2.1-.5 1.1-.6 1.9-1.1 1.9-.4 0-.5-1-.9-1.8-.6-1.3-1.6-1-2.2.6-.3.9-.5 1.6-.6 2.1-.1.3-.2.5-.3.6-.8.4-2.1-1.3-2.9-.4-.7.6-.7 2.3-.7 4.4 0 1.3-.3 1.8-.7 1.8-.2 0-.4-.1-.6-.4-.3-.5-.5-.7-.9-.7-.5 0-1 .3-1.7 1.6-.5.9-.9 2.1-1.3 2.8-.9 1.7-1.5 2.9-3.1 4.3 0-1.2-.1-2-.1-2v-1.3c0-1.4 1-3.5 2.5-5.8.9-1.3 1.4-2.2.9-2.7-.5-.5-1.5.3-1.9.1-.2-.1 0-.5.4-.9.6-.6 1.8-1.5 2.8-2.3 1.2-1 1.9-2 1.7-2.6-.2-.8-1.4-.2-1.6-.4-.2-.2.1-.6 1.1-1.8.6-.6.9-1 1.3-1.6.7-1 .8-1.6.6-2-.5-1.1-2.5 0-2.8-.4-.2-.3.1-.7.8-1.7.5-.8.8-1.4 1.1-2.1.6-1.3.5-2.5.1-3.2-.5-.7-1.3-.4-2.4.2-.5.3-1 .3-1.2.2-.3-.1-.3-.4-.1-1 .3-1 .6-1.9.1-2.3-.5-.5-1.1.1-1.6-.3-.7-.6-.9-2-2.2-2-1.1 0-1.1 1-2.2 1.3-.6.2-1 .1-1.4.3-.6.7 0 1.9.4 3.5.1.5.2.9-.2 1.1-.3.2-1-.1-1.5-.4-1.3-.6-1.9-.7-2.4-.1-.3.3-.4 1-.3 1.6.2 1.1.5 1.9 1.8 3.6.6.8 1.3 1.5 1.1 1.8-.2.3-1.2-.1-2-.2s-1.3.1-1.5.7c-.3 1.2 1.9 3.1 2.6 4.2.7 1.1-3.2 0 .9 3.1 2.6 1.9 2.8 2.4 2.5 2.8-.3.4-1.7-.7-2.2 0-.4.6 1 2.1 1.8 3.4 1 1.6 2.2 4.3 2.2 5.7v2.8c-1.6-1.4-2.3-2.1-3.1-3.8-.4-.8-.8-1.9-1.3-2.8-.7-1.3-1.1-1.6-1.6-1.6-.4 0-.7.3-1 .7-.2.3-.4.5-.6.4-.4 0-.6-.6-.7-1.8-.1-2.6-.3-4.1-.9-4.5-1-.6-2.2 1.4-3 1-.4-.3-.5-1.5-1-3.1-.6-2-2-2.5-2.6-1.2-.2 1-.3 2-.7 2-.4 0-.5-1.2-.8-2.1-.5-1.5-1.1-1.6-1.6-1.6-.7.1-.9.9-1.7 1.1-.7.2-1.5-.2-2.2.4-.9.9.4 2-.5 3-.5.5-.6 1.2-.3 1.6.3.4 1 .8 2.5 1 1 .2 1.2.3 1.3.6 0 .3-.8.8-1.5 1.2-.6.3-.8.6-.7 1 0 .4.4.7.7.9.7.3 1 .3 1.3.9.2.6.6.6 1.6.4 1-.2 1.7-.2 2-.1.3.1.3.3.3.5 0 .6-.9 1.3-.6 2 .4.7 1.8.6 3.1.4 1.6-.2 2.6-.7 2.6.1 0 .5-.2.9-.4 1.4-.2.8.4 1.2 3 1.3 3.6.2 8.4 1 8.4 2.3v1.6c-.6-.5-1.4-.8-2.2-.8-.9-.1-2.1.2-2.9.7-1-.7-2.3-1-3.5-.5-.8.3-1.4 1-1.4 1.5 0 .2.2.4.3.5-.3.4-1.1 1.3-1.5 2.5-.4 1.2-.1 2 .4 2.6.1.1.2.4.3.5.1.1.4.1.5.2.7.4 1.6.4 2.7-.2 1-.6 1.8-1.6 2.1-2 .1.1.3.2.5.2.5-.1 1-.8 1.1-1.7.2-1.2-.2-2.3-1-3.1.7-.4 1.7-.5 2.3-.5.5 0 1.1.2 1.4.4.5.3.9.6.9 1.1V53c-.1 4-.2 8.9-.2 9.3 0 .3.1.3.2.5.1.1.5.4.8.5.2 0 .5-.1.6-.4.1-.5-.1-4.9-.2-8.9 0-.4.3-.8.8-1.1.3-.2.9-.3 1.4-.4.5 0 1.4.1 2.1.5-.8 1-1.1 2.3-.7 3.5.3.8 1 1.4 1.4 1.4.2 0 .4-.2.5-.3.4.3 1.3 1.2 2.4 1.6 1.2.4 2 .2 2.7-.3.1-.1.4-.2.5-.3.1-.1.1-.4.2-.5.4-.7.5-1.6-.1-2.7s-1.5-1.8-1.9-2.2c.1-.1.2-.3.2-.5-.1-.5-.8-1-1.6-1.2-1.2-.2-2.3.1-3.1.9-.8-.5-1.8-.7-2.7-.7-.8.1-1.5.3-2.1.8 0-.7 0-1.3-.1-1.9v.2c0-1.3 4.7-2.6 8.3-2.8 2.6-.1 3.2-.5 3-1.3-.1-.5-.8-.8-.7-1.3.1-.5 1.4-.1 3 0 1.2.1 2.6.1 3-.6.3-.7-.6-1.4-.6-2 0-.9 3-1 4.6-1.8.7-.3.9-.7.9-1 0-.3-.4-.6-.9-.9-.6-.3-1-.7-.9-.9.1-.2.2-.3 1.3-.6 1.5-.3 2.1-.6 2.4-1 .3-.5.4-1.1.1-1.7z" class="st0"/></svg>