<svg xmlns="http://www.w3.org/2000/svg" data-name="Layer 1" viewBox="0 0 805 100"><g data-name="Layer 1"><path d="M254.15 60.81c14.97-2.77 22.55-12.39 22.55-28.62 0-19.84-10.49-30.32-30.31-30.32h-69.6l-.26 90.29-37.02-90.32H39.49L-.66 99.74l200.38.02.26-38.2h28.32l23.32 38.35h26.41l-22.78-37.46c-.32-.52-.68-1.07-1.09-1.64h-.01Zm-150 17.06 19.18-51.28 20.29 51.32-39.47-.03ZM253.5 33.13c0 4.98-2.13 7.1-7.1 7.1H200V23.22h46.4c4.98 0 7.1 2.13 7.1 7.1v2.8ZM759.44 37.15c-17.2 0-23-1.4-23-5.52 0-6.83 7.42-10.28 22.07-10.28 22.07 0 22.07 8.17 22.07 10.85v2.25h23.21V32.2c0-9.72-4.29-17.64-12.75-23.55-8.21-5.73-19.15-8.64-32.53-8.64-30.05 0-45.28 10.64-45.28 31.63 0 23.81 23.8 26.86 44.54 26.86 11.26 0 24.69 1.46 24.69 8.41 0 7.57-8.05 11.41-23.94 11.41-17.23 0-38.17-.59-38.39-.59l-4.4-.07-31.02-75.73H456.44l-18.83 29.13c-2.28 3.66-4.52 7.76-6.65 12.15l-.23.46-.2-.41c-1.42-3.33-3.66-7.45-6.71-12.27l-19-29.08h-38.57l-33.76 37.82h-16.4V1.91h-29.15V100h29.15V61.58h16.4L367.23 100h34.48l-45.98-50.02 30.45-35.29 32.92 50.95v34.33h23.21V65.64l27.63-42.76h45.03V99.8h23.21V22.88h37.86l-31.59 76.91 101.95.21h49.34l29.03-.23v-.03h2.53s17.2-.09 26.88-.09h4.33c31.29 0 47.15-11.02 47.15-32.74 0-19.75-15.56-29.76-46.22-29.76Zm-179 40.12 20.35-51.31 19.19 51.34-39.55-.03Z"/></g></svg>